<svg width="127" height="35" viewBox="0 0 127 35" fill="none" xmlns="http://www.w3.org/2000/svg">
<path d="M25.1259 0.531113C23.717 0.823871 21.686 1.18982 20.6247 1.3362C19.5635 1.50087 18.5754 1.66555 18.429 1.72044C18.2827 1.77533 16.7823 2.06809 15.0623 2.37914C11.842 2.94636 10.4697 3.20252 9.20718 3.45869C8.80464 3.55017 7.94467 3.69655 7.28596 3.80634C4.9805 4.20888 5.14517 4.11739 4.79752 5.25182C4.63285 5.81904 4.06563 7.68537 3.53501 9.40532C3.00439 11.107 2.2176 13.7052 1.79676 15.169C1.37592 16.6328 0.808707 18.6089 0.497652 19.5786C-0.142755 21.7011 -0.142755 21.7743 0.369571 22.25C0.735517 22.5794 1.19295 22.6526 3.99244 22.8356C5.74899 22.9453 7.57872 23.0917 8.05445 23.1466C8.58507 23.2015 8.95102 23.1466 9.04251 23.0185C9.0974 22.9087 9.00591 22.3232 8.82294 21.7377L8.47529 20.6765L7.37745 20.585C6.77364 20.5301 5.56601 20.4386 4.66944 20.3654C2.74822 20.2373 2.80312 20.402 3.73628 17.4013C4.10223 16.2302 4.43158 15.0958 4.48647 14.8945C4.54136 14.6932 4.87071 13.5771 5.21836 12.4244C5.58431 11.2716 5.96855 9.95424 6.07834 9.49681C6.22472 8.96618 6.40769 8.67343 6.59066 8.67343C6.84683 8.67343 8.95102 11.2716 9.70121 12.5342C9.95737 12.9733 10.0672 13.7784 10.2135 16.2851C10.3233 18.0417 10.488 20.3654 10.5795 21.4816C10.9088 25.3972 11.0918 28.7639 11.0003 29.0018C10.8539 29.4043 10.6893 29.3311 9.42675 28.1967C8.76805 27.6295 7.85318 26.8244 7.35915 26.4218C6.88342 26.0193 6.3162 25.5436 6.13323 25.3423C5.93196 25.1593 5.47453 24.9215 5.10858 24.8483C4.2852 24.647 3.07758 24.647 3.07758 24.83C3.07758 24.9032 5.12688 27.0074 7.63361 29.5141L12.1896 34.0701L14.367 33.942C18.9963 33.6493 22.9119 33.4663 26.919 33.3565C30.1759 33.2467 31.1274 33.1736 31.2921 32.9723C31.4018 32.8259 31.8227 31.4536 32.2069 29.9349C32.5912 28.3979 33.1035 26.4035 33.3597 25.507C34.0733 22.8173 34.9515 19.3591 35.2077 18.2795C35.3175 17.7306 35.5187 16.9072 35.6102 16.4681C35.7932 15.6996 35.7566 15.5715 34.8234 13.632C34.2928 12.5159 33.6158 11.107 33.3414 10.5032C33.0669 9.89935 32.6095 8.8747 32.3167 8.21599C32.0057 7.55729 31.6031 6.66072 31.4018 6.20329C30.6334 4.46504 30.2674 3.82463 30.0844 3.87952C29.8466 3.95271 28.8951 6.67902 28.8951 7.30113C28.8951 7.55729 29.2062 8.32578 29.5721 9.03937C31.7312 13.0282 32.1703 13.8516 32.1703 14.0528C32.1703 14.3273 31.2921 14.309 29.3159 13.9797C28.4194 13.8516 27.0837 13.632 26.3701 13.5222C25.1625 13.3209 25.0344 13.2661 25.0344 12.9001C25.0344 12.6622 25.565 11.0521 26.2237 9.29554C26.8824 7.53899 27.413 6.00202 27.413 5.87393C27.413 5.74585 27.5045 5.4531 27.6326 5.23353C28.0717 4.41015 28.8768 1.90341 28.8768 1.2996C28.8768 0.476221 28.5841 -0.0178066 28.09 0.000490684C27.8705 0.000490684 26.5348 0.256653 25.1259 0.531113ZM25.1442 4.61142C25.0344 5.36161 24.5586 6.7888 22.9485 11.2351C22.3081 12.9733 22.0702 13.6686 20.5515 18.0966C20.2039 19.1578 19.7647 20.3288 19.6001 20.7131L19.289 21.4084L18.0997 21.2803C17.441 21.2071 16.0321 21.0973 14.9708 21.0424L13.0496 20.9326L12.8484 17.7306C12.7386 15.9741 12.6837 14.4371 12.7203 14.309C12.8118 14.0528 13.1228 14.0894 16.9287 14.6384C18.2461 14.8213 19.4354 14.986 19.5818 14.986C19.8379 14.986 20.7162 13.0465 20.5515 12.7903C20.46 12.6439 20.1673 12.5891 17.624 12.2597C14.9708 11.9304 12.3543 11.4912 12.0982 11.3631C11.9701 11.2899 11.3114 10.4483 10.6161 9.49681C9.93907 8.54534 9.18888 7.5024 8.95102 7.17304C8.4204 6.47775 8.54848 6.02031 9.24378 6.02031C9.51824 6.02031 10.0489 5.94712 10.3965 5.83734C10.9271 5.69096 15.5564 5.05055 21.1004 4.35526C21.814 4.26377 22.8387 4.11739 23.3876 4.0259C25.3088 3.71485 25.2722 3.71485 25.1442 4.61142ZM27.6326 16.157C29.0781 16.4132 30.7614 16.6694 31.3835 16.7425C32.024 16.7974 32.6095 16.9621 32.701 17.0719C32.8107 17.2 32.4082 19.1029 31.6031 22.2135C30.9078 24.9215 30.2491 27.538 30.1393 27.9954C30.0478 28.4711 29.8466 29.0018 29.7002 29.1847C29.4806 29.4958 29.3708 29.4409 28.2181 28.3065C27.5228 27.6295 26.5896 26.8061 26.1322 26.4584C25.6748 26.1108 25.1808 25.6716 25.0161 25.4704C24.8514 25.2874 24.0829 24.5372 23.3144 23.8053C21.997 22.5245 21.814 22.2866 21.9238 21.8475C22.1434 20.9143 22.3447 20.3105 22.9302 18.737C23.2961 17.7306 23.6438 16.7425 23.6987 16.5413C23.9731 15.5715 24.0646 15.5532 27.6326 16.157ZM16.7091 23.6772C19.8745 23.8785 19.6916 23.8053 21.5762 25.5436C22.5276 26.4218 23.7536 27.538 24.3025 28.0503C24.8697 28.5626 25.748 29.3494 26.2786 29.7885C26.8092 30.246 27.1752 30.6668 27.102 30.74C26.9373 30.9047 20.2588 31.2706 16.4346 31.3255L13.7815 31.3621L13.5802 28.9835C13.2692 25.6168 13.2692 23.6406 13.5619 23.5126C13.6717 23.4577 14.0743 23.4577 14.4219 23.4943C14.7696 23.5309 15.8125 23.6223 16.7091 23.6772Z" fill="#20057E"/>
<path d="M41.2641 11.8023C40.825 12.2231 40.5871 12.6439 40.5871 12.955C40.5688 13.2112 40.5505 14.1626 40.5139 15.0775C40.4224 17.2183 40.6054 17.877 41.4471 18.4991C42.0692 18.9931 42.2156 19.0114 44.1002 19.0114C46.058 19.0114 46.0946 19.0114 46.2593 19.4871C46.4971 20.1093 46.4971 22.4147 46.2593 22.8722C46.0763 23.1832 45.8567 23.2198 44.2832 23.2198C43.1304 23.2198 42.4168 23.1466 42.2705 23.0002C42.1424 22.8722 42.0509 22.3598 42.0509 21.8292C42.0509 20.7131 41.7398 20.3105 41.0628 20.6216C40.7335 20.768 40.6054 21.0058 40.5139 21.6828C40.3492 22.8905 40.6603 23.8419 41.3922 24.4091C41.9594 24.8483 42.1241 24.8666 44.1917 24.8666C46.2959 24.8666 46.4057 24.8483 47.0278 24.3542C47.7962 23.7687 47.906 23.3479 47.906 20.9143C47.906 18.9016 47.7231 18.3161 46.9363 17.7672C46.4057 17.4195 46.0946 17.3647 44.4844 17.3647C42.0692 17.3647 42.0509 17.3464 42.0509 15.0775C42.0509 12.8452 42.1058 12.7903 44.2466 12.7903C45.7104 12.7903 45.8933 12.8269 46.1495 13.1929C46.3142 13.4307 46.4422 13.9796 46.4422 14.4737C46.4422 15.3885 46.735 15.7545 47.3937 15.5715C47.8328 15.4617 47.9792 14.8396 47.8511 13.4673C47.7597 12.461 47.6682 12.2597 47.101 11.7474L46.4422 11.1436H44.1917H41.9411L41.2641 11.8023Z" fill="#20057E"/>
<path d="M92.8992 11.8023L92.2771 12.4427V15.0958V17.7672L92.9541 18.371L93.6311 18.9931H95.5706C96.7782 18.9931 97.6382 19.0846 97.7846 19.2127C98.059 19.4506 98.1505 22.5794 97.8943 22.9819C97.7297 23.2381 94.3996 23.3662 94.0519 23.1466C93.9238 23.0734 93.8323 22.5611 93.8323 21.9573C93.8323 20.7497 93.5579 20.3654 92.8443 20.5484C92.2954 20.6765 92.0941 21.4816 92.2405 22.7807C92.2954 23.4028 92.4783 23.787 92.9358 24.2445L93.5396 24.8666H95.8816H98.2054L98.8641 24.281L99.5045 23.6772V21.1522V18.6272L98.8275 18.0051C98.1322 17.383 98.1139 17.3647 96.4489 17.3647C95.534 17.3647 94.5642 17.2915 94.2898 17.1817L93.814 16.9987L93.8689 14.9494L93.9238 12.8818L95.7353 12.8269C96.9063 12.7903 97.6199 12.8452 97.7846 12.9916C97.9492 13.1197 98.0407 13.5588 98.0407 14.1809C98.0407 14.803 98.1322 15.2422 98.3335 15.4251C98.6811 15.7911 98.7909 15.7911 99.2483 15.4617C99.5411 15.2422 99.596 14.986 99.5594 13.815C99.5411 12.461 99.5228 12.4244 98.8275 11.784L98.1322 11.1436H95.8267H93.5396L92.8992 11.8023Z" fill="#20057E"/>
<path d="M103.072 11.601C102.304 11.9669 101.956 12.278 101.81 12.7354C101.737 12.955 101.682 15.0226 101.682 17.3098C101.664 24.1896 101.609 23.5492 102.359 24.2445L102.999 24.8666H105.341C107.629 24.8666 107.665 24.8666 108.287 24.3359L108.928 23.8053L108.983 18.4442C109.019 12.6805 109.001 12.4976 108.104 11.8572C107.464 11.418 103.878 11.235 103.072 11.601ZM107.281 13.3758C107.519 13.5954 107.574 21.8292 107.336 22.616L107.171 23.2015L105.488 23.2564C103.018 23.3296 103.164 23.6589 103.164 18.1148C103.164 14.6567 103.219 13.5039 103.402 13.3941C104.024 13.0099 106.86 12.9916 107.281 13.3758Z" fill="#20057E"/>
<path d="M52.3706 11.6376C52.2425 11.7291 52.0778 12.1133 51.968 12.5159C51.8583 12.9184 51.6936 13.5954 51.5838 13.998C51.474 14.4188 51.3825 14.9677 51.3825 15.2422C51.3825 15.4983 51.3093 16.0655 51.1996 16.4864C50.5774 19.2859 50.0651 21.6828 49.8273 23.0368C49.5711 24.4823 49.5711 24.6104 49.8639 24.8117C50.2664 25.1227 50.3579 25.1044 50.8153 24.7202C51.1081 24.5006 51.2727 24.0615 51.4008 23.1283C51.5106 22.4147 51.6936 21.7377 51.7851 21.6096C51.9132 21.4633 52.5902 21.3901 53.9442 21.3901C55.2982 21.3901 55.9752 21.4633 56.0849 21.6096C56.1947 21.7377 56.3594 22.3049 56.4692 22.8539C56.8168 24.6287 56.9632 24.9032 57.6402 24.83C58.2257 24.7751 58.244 24.7568 58.2074 23.9517C58.1708 23.4943 57.9513 22.2135 57.7134 21.1156C57.4755 19.9995 57.1828 18.6089 57.0547 18.0051C56.396 14.5652 56.2496 13.8699 55.9752 12.7903L55.6824 11.601L54.1271 11.5461C53.2672 11.5278 52.4804 11.5644 52.3706 11.6376ZM54.4016 13.5771C54.548 13.815 54.7492 14.4005 54.8407 14.9128C54.9505 15.4068 55.1518 16.34 55.2982 16.9987C55.6824 18.5723 55.6824 19.4871 55.2982 19.6335C55.1335 19.6884 54.4931 19.7433 53.8527 19.7433C52.1327 19.7433 52.1327 19.725 52.7731 16.4132C53.3952 13.1929 53.7429 12.5891 54.4016 13.5771Z" fill="#20057E"/>
<path d="M60.0921 12.6439C60.0006 13.5771 60.0372 23.3662 60.147 24.5555C60.1652 24.83 60.2933 24.8849 60.8605 24.83L61.5375 24.7751L61.629 21.7743L61.7205 18.7553L62.2145 18.6272C62.7818 18.4808 65.3434 18.554 65.6361 18.7187C65.7642 18.8101 65.8374 19.725 65.8374 21.2803C65.8374 22.6343 65.8923 23.9883 65.9472 24.2993C66.057 24.8483 66.1119 24.8849 66.734 24.83L67.3927 24.7751L67.4476 18.554C67.4659 15.1324 67.4476 12.1499 67.3927 11.9121C67.3195 11.601 67.1731 11.5095 66.6608 11.5095C66.3132 11.5095 66.0021 11.5278 66.0021 11.5461C65.9838 11.5827 65.9289 12.7537 65.8557 14.1626L65.7459 16.7243L64.0992 16.834C61.629 16.9804 61.6473 16.9987 61.5924 14.0162L61.5375 11.601L60.8605 11.5461L60.2018 11.4912L60.0921 12.6439Z" fill="#20057E"/>
<path d="M71.7292 11.9121C71.473 12.461 70.9424 14.7664 70.3203 18.188C70.0275 19.6884 69.625 21.7377 69.4054 22.7075C68.948 24.6836 69.0212 24.9398 69.9909 24.83C70.4667 24.7751 70.5215 24.6653 70.9058 23.2381C71.1254 22.3964 71.4181 21.6279 71.5462 21.5547C71.9487 21.2986 75.4618 21.3535 75.6814 21.6096C75.7729 21.7377 75.9193 22.25 75.9742 22.7624C76.0473 23.2564 76.1937 23.9517 76.2852 24.281C76.4682 24.83 76.5414 24.8849 77.1452 24.83L77.8222 24.7751L77.7673 23.9517C77.7307 23.2564 77.4562 21.8109 76.6329 18.188C76.4682 17.4378 76.3401 16.7791 75.8095 13.9797C75.3337 11.5644 75.2972 11.5095 73.4491 11.5095C72.0585 11.5095 71.9121 11.5461 71.7292 11.9121ZM73.9249 13.4673C74.0895 13.6503 74.2908 14.2907 74.4006 14.8945C74.5104 15.4983 74.7299 16.5596 74.8946 17.2732C75.2789 19.0846 75.2606 19.3591 74.675 19.5786C74.1444 19.7799 72.1683 19.725 71.9304 19.5054C71.7658 19.3225 72.1317 16.7974 72.6074 14.9128C73.0283 13.1929 73.3576 12.8269 73.9249 13.4673Z" fill="#20057E"/>
<path d="M79.78 11.7291C79.5238 11.9852 79.4689 24.2445 79.7251 24.647C79.8166 24.7934 80.1093 24.8666 80.4021 24.83L80.9327 24.7751L81.0242 22.5245C81.0974 20.8046 81.1889 20.2373 81.3901 20.091C81.628 19.9446 83.348 19.9812 83.5126 20.1459C83.5492 20.1824 83.6224 20.9692 83.6956 21.9024C83.842 23.7504 84.0799 24.2811 85.0679 24.7751C85.4522 24.9763 85.7632 25.0129 86.2023 24.9032C86.7147 24.7751 86.7879 24.6836 86.7879 24.1164C86.7879 23.5858 86.7147 23.476 86.2389 23.3113C85.2875 23.0002 85.2326 22.9088 85.2326 21.5365C85.2326 20.2739 85.2509 20.2373 86.056 19.3408L86.8793 18.4259V15.8094C86.8793 14.3639 86.8062 12.9733 86.6964 12.7171C86.6049 12.461 86.2572 12.0767 85.9279 11.8755C85.3973 11.5644 84.9947 11.5095 82.671 11.5095C80.8412 11.5095 79.9264 11.5827 79.78 11.7291ZM85.1228 13.449C85.3607 13.6686 85.4156 14.1443 85.4156 15.6813C85.4156 16.7608 85.3424 17.7306 85.2692 17.8587C85.1777 17.9868 84.4275 18.1331 83.3846 18.2063C80.9876 18.371 80.951 18.3344 81.0608 15.5715C81.1157 14.0345 81.2072 13.449 81.4084 13.321C81.5548 13.2295 82.3782 13.1563 83.2565 13.1563C84.4641 13.1563 84.9032 13.2295 85.1228 13.449Z" fill="#20057E"/>
<path d="M111.251 11.7291C111.087 11.8938 111.032 13.4307 111.05 17.8953C111.068 21.1888 111.123 24.0615 111.197 24.3176C111.343 24.8483 112.258 25.0678 112.514 24.647C112.605 24.5189 112.679 23.4028 112.679 22.1769C112.679 20.402 112.733 19.8897 112.971 19.6701C113.191 19.4323 113.722 19.3774 115.807 19.3774H118.351V18.7553C118.351 17.9685 118.168 17.9136 115.277 17.9136C113.045 17.9136 113.026 17.9136 112.862 17.4379C112.624 16.8157 112.624 13.7784 112.862 13.321C113.045 13.0099 113.282 12.9733 115.57 12.9733C116.942 12.9733 118.186 12.9001 118.314 12.8086C118.461 12.7171 118.534 12.4244 118.497 12.1316L118.442 11.601L114.966 11.5461C112.404 11.5095 111.416 11.5644 111.251 11.7291Z" fill="#20057E"/>
<path d="M119.266 12.1316C119.266 12.9184 119.449 13.0282 120.711 13.0831C121.406 13.1014 121.772 13.2112 121.937 13.4307C122.102 13.6503 122.157 15.0409 122.102 19.1212C122.047 25.0312 122.065 25.1593 123.053 24.8849L123.565 24.7568L123.62 19.1578C123.657 14.4554 123.712 13.5222 123.931 13.3392C124.096 13.2112 124.682 13.0648 125.249 12.9916C126.383 12.8635 126.822 12.4793 126.475 11.9121C126.292 11.6376 125.871 11.601 122.76 11.5461L119.266 11.5095V12.1316Z" fill="#20057E"/>
</svg>
