<?xml version="1.0" standalone="no"?>
<!DOCTYPE svg PUBLIC "-//W3C//DTD SVG 20010904//EN"
 "http://www.w3.org/TR/2001/REC-SVG-20010904/DTD/svg10.dtd">
<svg version="1.0" xmlns="http://www.w3.org/2000/svg"
 width="144pt" height="144pt" viewBox="0 0 787.000000 288.000000"
 preserveAspectRatio="xMidYMid meet">

<g transform="translate(0.000000,288.000000) scale(0.100000,-0.100000)"
fill="rgb(32, 5, 126)" stroke="none">
<path d="M1765 2560 c-77 -16 -188 -36 -246 -44 -58 -9 -112 -18 -120 -21 -8
-3 -90 -19 -184 -36 -176 -31 -251 -45 -320 -59 -22 -5 -69 -13 -105 -19 -126
-22 -117 -17 -136 -79 -9 -31 -40 -133 -69 -227 -29 -93 -72 -235 -95 -315
-23 -80 -54 -188 -71 -241 -35 -116 -35 -120 -7 -146 20 -18 45 -22 198 -32
96 -6 196 -14 222 -17 29 -3 49 0 54 7 3 6 -2 38 -12 70 l-19 58 -60 5 c-33 3
-99 8 -148 12 -105 7 -102 -2 -51 162 20 64 38 126 41 137 3 11 21 72 40 135
20 63 41 135 47 160 8 29 18 45 28 45 14 0 129 -142 170 -211 14 -24 20 -68
28 -205 6 -96 15 -223 20 -284 18 -214 28 -398 23 -411 -8 -22 -17 -18 -86 44
-36 31 -86 75 -113 97 -26 22 -57 48 -67 59 -11 10 -36 23 -56 27 -45 11 -111
11 -111 1 0 -4 112 -119 249 -256 l249 -249 119 7 c253 16 467 26 686 32 178
6 230 10 239 21 6 8 29 83 50 166 21 84 49 193 63 242 39 147 87 336 101 395
6 30 17 75 22 99 10 42 8 49 -43 155 -29 61 -66 138 -81 171 -15 33 -40 89
-56 125 -17 36 -39 85 -50 110 -42 95 -62 130 -72 127 -13 -4 -65 -153 -65
-187 0 -14 17 -56 37 -95 118 -218 142 -263 142 -274 0 -15 -48 -14 -156 4
-49 7 -122 19 -161 25 -66 11 -73 14 -73 34 0 13 29 101 65 197 36 96 65 180
65 187 0 7 5 23 12 35 24 45 68 182 68 215 0 45 -16 72 -43 71 -12 0 -85 -14
-162 -29z m1 -223 c-6 -41 -32 -119 -120 -362 -35 -95 -48 -133 -131 -375 -19
-58 -43 -122 -52 -143 l-17 -38 -65 7 c-36 4 -113 10 -171 13 l-105 6 -11 175
c-6 96 -9 180 -7 187 5 14 22 12 230 -18 72 -10 137 -19 145 -19 14 0 62 106
53 120 -5 8 -21 11 -160 29 -145 18 -288 42 -302 49 -7 4 -43 50 -81 102 -37
52 -78 109 -91 127 -29 38 -22 63 16 63 15 0 44 4 63 10 29 8 282 43 585 81
39 5 95 13 125 18 105 17 103 17 96 -32z m136 -631 c79 -14 171 -28 205 -32
35 -3 67 -12 72 -18 6 -7 -16 -111 -60 -281 -38 -148 -74 -291 -80 -316 -5
-26 -16 -55 -24 -65 -12 -17 -18 -14 -81 48 -38 37 -89 82 -114 101 -25 19
-52 43 -61 54 -9 10 -51 51 -93 91 -72 70 -82 83 -76 107 12 51 23 84 55 170
20 55 39 109 42 120 15 53 20 54 215 21z m-597 -411 c173 -11 163 -7 266 -102
52 -48 119 -109 149 -137 31 -28 79 -71 108 -95 29 -25 49 -48 45 -52 -9 -9
-374 -29 -583 -32 l-145 -2 -11 130 c-17 184 -17 292 -1 299 6 3 28 3 47 1 19
-2 76 -7 125 -10z"/>
<path d="M2647 1944 c-24 -23 -37 -46 -37 -63 -1 -14 -2 -66 -4 -116 -5 -117
5 -153 51 -187 34 -27 42 -28 145 -28 107 0 109 0 118 -26 13 -34 13 -160 0
-185 -10 -17 -22 -19 -108 -19 -63 0 -102 4 -110 12 -7 7 -12 35 -12 64 0 61
-17 83 -54 66 -18 -8 -25 -21 -30 -58 -9 -66 8 -118 48 -149 31 -24 40 -25
153 -25 115 0 121 1 155 28 42 32 48 55 48 188 0 110 -10 142 -53 172 -29 19
-46 22 -134 22 -132 0 -133 1 -133 125 0 122 3 125 120 125 80 0 90 -2 104
-22 9 -13 16 -43 16 -70 0 -50 16 -70 52 -60 24 6 32 40 25 115 -5 55 -10 66
-41 94 l-36 33 -123 0 -123 0 -37 -36z"/>
<path d="M5469 1944 l-34 -35 0 -145 0 -146 37 -33 37 -34 106 0 c66 0 113 -5
121 -12 15 -13 20 -184 6 -206 -9 -14 -191 -21 -210 -9 -7 4 -12 32 -12 65 0
66 -15 87 -54 77 -30 -7 -41 -51 -33 -122 3 -34 13 -55 38 -80 l33 -34 128 0
127 0 36 32 35 33 0 138 0 138 -37 34 c-38 34 -39 35 -130 35 -50 0 -103 4
-118 10 l-26 10 3 112 3 113 99 3 c64 2 103 -1 112 -9 9 -7 14 -31 14 -65 0
-34 5 -58 16 -68 19 -20 25 -20 50 -2 16 12 19 26 17 90 -1 74 -2 76 -40 111
l-38 35 -126 0 -125 0 -35 -36z"/>
<path d="M6025 1955 c-42 -20 -61 -37 -69 -62 -4 -12 -7 -125 -7 -250 -1 -376
-4 -341 37 -379 l35 -34 128 0 c125 0 127 0 161 29 l35 29 3 293 c2 315 1 325
-48 360 -35 24 -231 34 -275 14z m230 -97 c13 -12 16 -462 3 -505 l-9 -32 -92
-3 c-135 -4 -127 -22 -127 281 0 189 3 252 13 258 34 21 189 22 212 1z"/>
<path d="M3254 1953 c-7 -5 -16 -26 -22 -48 -6 -22 -15 -59 -21 -81 -6 -23
-11 -53 -11 -68 0 -14 -4 -45 -10 -68 -34 -153 -62 -284 -75 -358 -14 -79 -14
-86 2 -97 22 -17 27 -16 52 5 16 12 25 36 32 87 6 39 16 76 21 83 7 8 44 12
118 12 74 0 111 -4 117 -12 6 -7 15 -38 21 -68 19 -97 27 -112 64 -108 32 3
33 4 31 48 -2 25 -14 95 -27 155 -13 61 -29 137 -36 170 -36 188 -44 226 -59
285 l-16 65 -85 3 c-47 1 -90 -1 -96 -5z m111 -106 c8 -13 19 -45 24 -73 6
-27 17 -78 25 -114 21 -86 21 -136 0 -144 -9 -3 -44 -6 -79 -6 -94 0 -94 1
-59 182 34 176 53 209 89 155z"/>
<path d="M3676 1898 c-5 -51 -3 -586 3 -651 1 -15 8 -18 39 -15 l37 3 5 164 5
165 27 7 c31 8 171 4 187 -5 7 -5 11 -55 11 -140 0 -74 3 -148 6 -165 6 -30 9
-32 43 -29 l36 3 3 340 c1 187 0 350 -3 363 -4 17 -12 22 -40 22 -19 0 -36 -1
-36 -2 -1 -2 -4 -66 -8 -143 l-6 -140 -90 -6 c-135 -8 -134 -9 -137 154 l-3
132 -37 3 -36 3 -6 -63z"/>
<path d="M4312 1938 c-14 -30 -43 -156 -77 -343 -16 -82 -38 -194 -50 -247
-25 -108 -21 -122 32 -116 26 3 29 9 50 87 12 46 28 88 35 92 22 14 214 11
226 -3 5 -7 13 -35 16 -63 4 -27 12 -65 17 -83 10 -30 14 -33 47 -30 l37 3 -3
45 c-2 38 -17 117 -62 315 -9 41 -16 77 -45 230 -26 132 -28 135 -129 135 -76
0 -84 -2 -94 -22z m120 -85 c9 -10 20 -45 26 -78 6 -33 18 -91 27 -130 21 -99
20 -114 -12 -126 -29 -11 -137 -8 -150 4 -9 10 11 148 37 251 23 94 41 114 72
79z"/>
<path d="M4752 1948 c-14 -14 -17 -684 -3 -706 5 -8 21 -12 37 -10 l29 3 5
123 c4 94 9 125 20 133 13 8 107 6 116 -3 2 -2 6 -45 10 -96 8 -101 21 -130
75 -157 21 -11 38 -13 62 -7 28 7 32 12 32 43 0 29 -4 35 -30 44 -52 17 -55
22 -55 97 0 69 1 71 45 120 l45 50 0 143 c0 79 -4 155 -10 169 -5 14 -24 35
-42 46 -29 17 -51 20 -178 20 -100 0 -150 -4 -158 -12z m292 -94 c13 -12 16
-38 16 -122 0 -59 -4 -112 -8 -119 -5 -7 -46 -15 -103 -19 -131 -9 -133 -7
-127 144 3 84 8 116 19 123 8 5 53 9 101 9 66 0 90 -4 102 -16z"/>
<path d="M6472 1948 c-9 -9 -12 -93 -11 -337 1 -180 4 -337 8 -351 8 -29 58
-41 72 -18 5 7 9 68 9 135 0 97 3 125 16 137 12 13 41 16 155 16 l139 0 0 34
c0 43 -10 46 -168 46 -122 0 -123 0 -132 26 -13 34 -13 200 0 225 10 17 23 19
148 19 75 0 143 4 150 9 8 5 12 21 10 37 l-3 29 -190 3 c-140 2 -194 -1 -203
-10z"/>
<path d="M6910 1926 c0 -43 10 -49 79 -52 38 -1 58 -7 67 -19 9 -12 12 -88 9
-311 -3 -323 -2 -330 52 -315 l28 7 3 306 c2 257 5 308 17 318 9 7 41 15 72
19 62 7 86 28 67 59 -10 15 -33 17 -203 20 l-191 2 0 -34z"/>
</g>
</svg>
